<svg xmlns="http://www.w3.org/2000/svg" width="243" height="94" viewBox="0 0 243 94">
  <g id="Vereinigungsmenge_4" data-name="Vereinigungsmenge 4" transform="translate(1990 1181)" fill="#15272e">
    <path d="M -1868.00048828125 -1089.500244140625 C -1889.138305664062 -1089.500244140625 -1910.291381835938 -1091.930786132812 -1930.872314453125 -1096.724243164062 C -1950.187866210938 -1101.222900390625 -1969.024658203125 -1107.805297851562 -1986.8994140625 -1116.300537109375 L -1965.224243164062 -1178.499877929688 L -1769.827758789062 -1178.499877929688 L -1750.4189453125 -1117.500122070312 L -1750.87939453125 -1117.500122070312 L -1750.28173828125 -1116.171875 C -1768.015014648438 -1107.722900390625 -1786.558471679688 -1101.189208984375 -1805.439453125 -1096.739624023438 C -1815.514038085938 -1094.365478515625 -1825.840698242188 -1092.5517578125 -1836.132568359375 -1091.348876953125 C -1846.628051757812 -1090.122192382812 -1857.349975585938 -1089.500244140625 -1868.00048828125 -1089.500244140625 Z" stroke="none"/>
    <path d="M -1868.00048828125 -1092.000244140625 C -1857.446533203125 -1092.000244140625 -1846.822265625 -1092.616577148438 -1836.422729492188 -1093.831909179688 C -1826.225830078125 -1095.023681640625 -1815.994506835938 -1096.820678710938 -1806.012939453125 -1099.172973632812 C -1788.0869140625 -1103.397583007812 -1770.467041015625 -1109.518432617188 -1753.565307617188 -1117.388671875 L -1754.7373046875 -1120.000122070312 L -1753.837890625 -1120.000122070312 L -1771.65576171875 -1175.999877929688 L -1963.447998046875 -1175.999877929688 L -1983.797485351562 -1117.604614257812 C -1966.68994140625 -1109.64599609375 -1948.717163085938 -1103.447387695312 -1930.305297851562 -1099.159057617188 C -1909.909912109375 -1094.408813476562 -1888.947631835938 -1092.000244140625 -1868.00048828125 -1092.000244140625 M -1868.00048828125 -1087.000244140625 C -1911.440063476562 -1087.000244140625 -1953.076049804688 -1097.104614257812 -1989.966674804688 -1115.000122070312 L -1990 -1115.000122070312 L -1967.00048828125 -1180.999877929688 L -1767.999633789062 -1180.999877929688 L -1747 -1115.000122070312 L -1747.012939453125 -1115.000122070312 C -1747.009643554688 -1114.992797851562 -1747.005859375 -1114.984130859375 -1747.002685546875 -1114.976684570312 C -1783.57958984375 -1097.157592773438 -1824.395385742188 -1087.000244140625 -1868.00048828125 -1087.000244140625 Z" stroke="none" fill="#00b0f0"/>
  </g>
</svg>
